<svg xmlns="http://www.w3.org/2000/svg" viewBox="0 0 96 96">
  <rect x="5" y="5" width="86" height="86" rx="28" fill="#F5EDFF"/>
  <path d="M21 57c14 3 25 0 37-10l16 12c7 5 4 15-4 17-18 4-36 2-51-5-8-4-6-16 2-14z" fill="#8B63C7" stroke="#5C3994" stroke-width="4" stroke-linejoin="round"/>
  <path d="M31 37l9 15M43 32l8 14" stroke="#FFFFFF" stroke-width="5" stroke-linecap="round"/>
  <circle cx="65" cy="27" r="7" fill="#FFD15A"/>
  <path d="M65 14v6M65 34v6M52 27h6M72 27h6" stroke="#F0A623" stroke-width="4" stroke-linecap="round"/>
  <circle cx="42" cy="62" r="2.5" fill="#FFFFFF"/>
  <circle cx="53" cy="62" r="2.5" fill="#FFFFFF"/>
  <path d="M43 68c3 3 7 3 10 0" fill="none" stroke="#FFFFFF" stroke-width="3" stroke-linecap="round"/>
</svg>